<svg width="256" height="256" viewBox="0 0 256 256" fill="none" xmlns="http://www.w3.org/2000/svg">
<g clip-path="url(#clip0_1_2)">
<path d="M256 162.75C256 166.31 256 169.87 255.98 173.432C255.962 176.432 255.927 179.43 255.847 182.427C255.67 188.96 255.285 195.55 254.125 202.012C252.947 208.567 251.025 214.667 247.992 220.622C245.012 226.475 241.12 231.832 236.475 236.475C231.83 241.117 226.475 245.012 220.622 247.992C214.667 251.022 208.567 252.947 202.012 254.125C195.552 255.287 188.962 255.67 182.427 255.847C179.43 255.93 176.43 255.962 173.432 255.98C169.872 256.002 166.312 256 162.75 256H93.25C89.69 256 86.13 256 82.5675 255.98C79.5675 255.962 76.57 255.927 73.5725 255.847C67.04 255.67 60.45 255.285 53.9875 254.125C47.4325 252.947 41.3325 251.025 35.3775 247.992C29.525 245.012 24.1675 241.12 19.525 236.475C14.8825 231.83 10.9875 226.475 8.0075 220.622C4.9775 214.667 3.0525 208.567 1.875 202.012C0.7125 195.552 0.33 188.962 0.1525 182.427C0.07 179.43 0.0375 176.43 0.02 173.432C0 169.87 0 166.31 0 162.75V93.25C0 89.69 0 86.13 0.02 82.5675C0.0375 79.5675 0.0725 76.57 0.1525 73.5725C0.33 67.04 0.715 60.45 1.875 53.9875C3.0525 47.4325 4.975 41.3325 8.0075 35.3775C10.9875 29.525 14.88 24.1675 19.525 19.525C24.17 14.8825 29.525 10.9875 35.3775 8.0075C41.3325 4.9775 47.4325 3.0525 53.9875 1.875C60.4475 0.7125 67.0375 0.33 73.5725 0.1525C76.57 0.07 79.57 0.0375 82.5675 0.02C86.13 0 89.69 0 93.25 0H162.75C166.31 0 169.87 0 173.432 0.02C176.432 0.0375 179.43 0.0725 182.427 0.1525C188.96 0.33 195.55 0.715 202.012 1.875C208.567 3.0525 214.667 4.975 220.622 8.0075C226.475 10.9875 231.832 14.88 236.475 19.525C241.117 24.17 245.012 29.525 247.992 35.3775C251.022 41.3325 252.947 47.4325 254.125 53.9875C255.287 60.4475 255.67 67.0375 255.847 73.5725C255.93 76.57 255.962 79.57 255.98 82.5675C256.002 86.1275 256 89.6875 256 93.25V162.75Z" fill="#DE2B2B"/>
<mask id="mask0_1_2" style="mask-type:alpha" maskUnits="userSpaceOnUse" x="0" y="0" width="256" height="256">
<path d="M256 162.75C256 166.31 256 169.87 255.98 173.432C255.962 176.432 255.927 179.43 255.847 182.427C255.67 188.96 255.285 195.55 254.125 202.012C252.947 208.567 251.025 214.667 247.992 220.622C245.012 226.475 241.12 231.832 236.475 236.475C231.83 241.117 226.475 245.012 220.622 247.992C214.667 251.022 208.567 252.947 202.012 254.125C195.552 255.287 188.962 255.67 182.427 255.847C179.43 255.93 176.43 255.962 173.432 255.98C169.872 256.002 166.312 256 162.75 256H93.25C89.69 256 86.13 256 82.5675 255.98C79.5675 255.962 76.57 255.927 73.5725 255.847C67.04 255.67 60.45 255.285 53.9875 254.125C47.4325 252.947 41.3325 251.025 35.3775 247.992C29.525 245.012 24.1675 241.12 19.525 236.475C14.8825 231.83 10.9875 226.475 8.0075 220.622C4.9775 214.667 3.0525 208.567 1.875 202.012C0.7125 195.552 0.33 188.962 0.1525 182.427C0.07 179.43 0.0375 176.43 0.02 173.432C0 169.87 0 166.31 0 162.75V93.25C0 89.69 0 86.13 0.02 82.5675C0.0375 79.5675 0.0725 76.57 0.1525 73.5725C0.33 67.04 0.715 60.45 1.875 53.9875C3.0525 47.4325 4.975 41.3325 8.0075 35.3775C10.9875 29.525 14.88 24.1675 19.525 19.525C24.17 14.8825 29.525 10.9875 35.3775 8.0075C41.3325 4.9775 47.4325 3.0525 53.9875 1.875C60.4475 0.7125 67.0375 0.33 73.5725 0.1525C76.57 0.07 79.57 0.0375 82.5675 0.02C86.13 0 89.69 0 93.25 0H162.75C166.31 0 169.87 0 173.432 0.02C176.432 0.0375 179.43 0.0725 182.427 0.1525C188.96 0.33 195.55 0.715 202.012 1.875C208.567 3.0525 214.667 4.975 220.622 8.0075C226.475 10.9875 231.832 14.88 236.475 19.525C241.117 24.17 245.012 29.525 247.992 35.3775C251.022 41.3325 252.947 47.4325 254.125 53.9875C255.287 60.4475 255.67 67.0375 255.847 73.5725C255.93 76.57 255.962 79.57 255.98 82.5675C256.002 86.1275 256 89.6875 256 93.25V162.75Z" fill="#3857E1"/>
</mask>
<g mask="url(#mask0_1_2)">
<path d="M58.4272 67.1143C58.4272 54.3499 68.7749 44.0023 81.5393 44.0023H120.566V98.3413C120.566 111.106 130.913 121.453 143.678 121.453H197.573V188.886C197.573 201.65 187.225 211.998 174.461 211.998H81.5393C68.7749 211.998 58.4272 201.65 58.4272 188.886V67.1143Z" fill="white"/>
<path d="M197.573 105.643L135.932 44.0023V98.7495C135.932 102.556 139.019 105.643 142.826 105.643H197.573Z" fill="white"/>
<rect opacity="0.5" x="213.573" y="44.0023" width="139.146" height="167.995" rx="23" fill="white"/>
<rect opacity="0.5" x="-96.7183" y="44.0023" width="139.146" height="167.995" rx="23" fill="white"/>
</g>
</g>
<defs>
<clipPath id="clip0_1_2">
<rect width="256" height="256" fill="white"/>
</clipPath>
</defs>
</svg>
