<svg width="305" height="115" viewBox="0 0 305 115" fill="none" xmlns="http://www.w3.org/2000/svg">
<rect width="305" height="115" rx="30" fill="black"/>
<path d="M58.7163 21.4874C38.3176 21.4874 21.7925 38.0125 21.7925 58.4113C21.7925 74.7484 32.3628 88.5512 47.0383 93.4419C48.8845 93.7642 49.576 92.6598 49.576 91.6897C49.576 90.8103 49.5324 87.9034 49.5324 84.8118C40.2544 86.5204 37.8544 82.5494 37.1159 80.4749C36.6997 79.4109 34.9005 76.1347 33.3329 75.2586C32.0405 74.5638 30.191 72.8586 33.2859 72.8116C36.1928 72.7646 38.2706 75.4869 38.9621 76.5979C42.2852 82.1802 47.5922 80.6126 49.717 79.6425C50.0392 77.2424 51.0093 75.6278 52.0701 74.7048C43.8528 73.7817 35.2697 70.5961 35.2697 56.4711C35.2697 52.4564 36.6997 49.1333 39.0561 46.5486C38.6835 45.6255 37.3911 41.8425 39.4253 36.7638C39.4253 36.7638 42.5168 35.7971 49.576 40.5502C52.5818 39.7162 55.6876 39.2972 58.807 39.3048C61.9489 39.3048 65.0874 39.7177 68.0379 40.5502C75.1005 35.7501 78.192 36.7638 78.192 36.7638C80.2228 41.8425 78.9338 45.6255 78.5646 46.5486C80.9177 49.1333 82.3476 52.4128 82.3476 56.4711C82.3476 70.6431 73.7175 73.7817 65.5003 74.7048C66.8396 75.8595 67.9943 78.0749 67.9943 81.5357C67.9943 86.4734 67.9473 90.4444 67.9473 91.6897C67.9473 92.6598 68.6388 93.8112 70.485 93.4419C85.0699 88.5512 95.6402 74.7048 95.6402 58.4113C95.6402 38.0125 79.1185 21.4874 58.7163 21.4874Z" fill="white"/>
<path d="M149.953 87.5625C147.532 87.5625 145.344 87.1562 143.391 86.3438C141.453 85.5312 139.797 84.3594 138.422 82.8281C137.063 81.2969 136.016 79.4453 135.282 77.2734C134.547 75.1016 134.18 72.6562 134.18 69.9375V69.9141C134.18 66.3516 134.821 63.2812 136.102 60.7031C137.383 58.125 139.203 56.1328 141.563 54.7266C143.922 53.3203 146.703 52.6172 149.907 52.6172C152.532 52.6172 154.828 53.0859 156.797 54.0234C158.766 54.9453 160.375 56.2109 161.625 57.8203C162.875 59.4297 163.735 61.2578 164.203 63.3047L164.297 63.7031H158.883L158.789 63.4453C158.086 61.4922 156.977 59.9766 155.461 58.8984C153.961 57.8203 152.11 57.2812 149.907 57.2812C147.766 57.2812 145.914 57.7812 144.352 58.7812C142.805 59.7812 141.618 61.2266 140.789 63.1172C139.961 64.9922 139.547 67.25 139.547 69.8906V69.9141C139.547 71.9297 139.789 73.7422 140.274 75.3516C140.758 76.9453 141.453 78.3047 142.36 79.4297C143.282 80.5547 144.383 81.4141 145.664 82.0078C146.946 82.6016 148.391 82.8984 150 82.8984C151.828 82.8984 153.438 82.5391 154.828 81.8203C156.235 81.1016 157.328 80.1016 158.11 78.8203C158.907 77.5234 159.313 76.0234 159.328 74.3203V73.7578H150.469V69.4688H164.532V72.9375C164.532 75.2188 164.203 77.2656 163.547 79.0781C162.891 80.8906 161.93 82.4297 160.664 83.6953C159.414 84.9609 157.883 85.9219 156.071 86.5781C154.274 87.2344 152.235 87.5625 149.953 87.5625ZM169.243 87V62.3438H174.352V87H169.243ZM171.797 58.5469C170.985 58.5469 170.289 58.2656 169.711 57.7031C169.133 57.125 168.844 56.4375 168.844 55.6406C168.844 54.8125 169.133 54.1172 169.711 53.5547C170.289 52.9922 170.985 52.7109 171.797 52.7109C172.625 52.7109 173.321 52.9922 173.883 53.5547C174.461 54.1172 174.75 54.8125 174.75 55.6406C174.75 56.4375 174.461 57.125 173.883 57.7031C173.321 58.2656 172.625 58.5469 171.797 58.5469ZM188.227 87.4922C185.789 87.4922 183.969 86.9453 182.766 85.8516C181.578 84.7422 180.985 82.9531 180.985 80.4844V66.375H177.446V62.3438H180.985V55.9219H186.188V62.3438H190.805V66.375H186.188V80.2031C186.188 81.4531 186.461 82.3125 187.008 82.7812C187.555 83.2344 188.368 83.4609 189.446 83.4609C189.711 83.4609 189.953 83.4531 190.172 83.4375C190.407 83.4062 190.618 83.3828 190.805 83.3672V87.2812C190.508 87.3281 190.133 87.375 189.68 87.4219C189.227 87.4688 188.743 87.4922 188.227 87.4922ZM195.164 87V53.1797H200.25V66.3984H200.368C201.008 64.9609 201.977 63.8516 203.274 63.0703C204.586 62.2734 206.164 61.875 208.008 61.875C209.774 61.875 211.305 62.2891 212.602 63.1172C213.914 63.9297 214.93 65.0781 215.649 66.5625C216.383 68.0469 216.75 69.7812 216.75 71.7656V87H211.664V72.7266C211.664 70.6797 211.172 69.0859 210.188 67.9453C209.203 66.8047 207.821 66.2344 206.039 66.2344C204.883 66.2344 203.868 66.5078 202.993 67.0547C202.133 67.6016 201.461 68.3594 200.977 69.3281C200.493 70.2969 200.25 71.4297 200.25 72.7266V87H195.164ZM230.039 87.4922C228.243 87.4922 226.703 87.125 225.422 86.3906C224.157 85.6406 223.188 84.5781 222.516 83.2031C221.844 81.8281 221.508 80.1953 221.508 78.3047V62.3438H226.618V77.3438C226.618 79.2031 227.047 80.6328 227.907 81.6328C228.782 82.6172 230.094 83.1094 231.844 83.1094C232.75 83.1094 233.555 82.9609 234.258 82.6641C234.977 82.3516 235.594 81.9219 236.11 81.375C236.625 80.8125 237.016 80.1406 237.282 79.3594C237.563 78.5625 237.703 77.6875 237.703 76.7344V62.3438H242.789V87H237.703V83.2969H237.586C237.164 84.1094 236.602 84.8359 235.899 85.4766C235.196 86.1016 234.352 86.5938 233.368 86.9531C232.399 87.3125 231.289 87.4922 230.039 87.4922ZM260.93 87.4922C259.758 87.4922 258.672 87.3047 257.672 86.9297C256.688 86.5391 255.813 86 255.047 85.3125C254.297 84.625 253.68 83.7969 253.196 82.8281H253.078V87H247.993V53.1797H253.078V66.5391H253.196C253.68 65.5703 254.305 64.7422 255.071 64.0547C255.836 63.3516 256.719 62.8125 257.719 62.4375C258.735 62.0625 259.821 61.875 260.977 61.875C263.039 61.875 264.836 62.3984 266.368 63.4453C267.899 64.4766 269.094 65.9453 269.953 67.8516C270.813 69.7578 271.243 72.0234 271.243 74.6484V74.6719C271.243 77.2969 270.813 79.5703 269.953 81.4922C269.11 83.3984 267.914 84.875 266.368 85.9219C264.821 86.9688 263.008 87.4922 260.93 87.4922ZM259.571 83.1094C260.899 83.1094 262.047 82.7734 263.016 82.1016C263.985 81.4297 264.727 80.4609 265.243 79.1953C265.774 77.9141 266.039 76.4062 266.039 74.6719V74.6484C266.039 72.9141 265.774 71.4219 265.243 70.1719C264.727 68.9062 263.985 67.9375 263.016 67.2656C262.047 66.5781 260.899 66.2344 259.571 66.2344C258.305 66.2344 257.18 66.5859 256.196 67.2891C255.227 67.9766 254.461 68.9531 253.899 70.2188C253.336 71.4688 253.055 72.9453 253.055 74.6484V74.6719C253.055 76.375 253.328 77.8594 253.875 79.125C254.438 80.3906 255.211 81.375 256.196 82.0781C257.18 82.7656 258.305 83.1094 259.571 83.1094Z" fill="white"/>
<path d="M138.947 41L132.672 23.3853H135.639L140.424 37.9116H140.497L145.282 23.3853H148.248L141.974 41H138.947ZM149.848 41V28.1094H152.509V41H149.848ZM151.178 26.0708C150.747 26.0708 150.381 25.9202 150.079 25.6191C149.778 25.318 149.628 24.9559 149.628 24.5327C149.628 24.1014 149.778 23.7393 150.079 23.4463C150.381 23.1452 150.747 22.9946 151.178 22.9946C151.618 22.9946 151.988 23.1452 152.289 23.4463C152.59 23.7393 152.741 24.1014 152.741 24.5327C152.741 24.9559 152.59 25.318 152.289 25.6191C151.988 25.9202 151.618 26.0708 151.178 26.0708ZM160.87 41.2563C159.609 41.2563 158.523 40.9837 157.611 40.4385C156.7 39.8932 156 39.1242 155.512 38.1313C155.023 37.1304 154.779 35.9504 154.779 34.5913V34.5791C154.779 33.2363 155.023 32.0604 155.512 31.0513C156.008 30.0422 156.7 29.2568 157.587 28.6953C158.482 28.1338 159.532 27.853 160.736 27.853C161.941 27.853 162.978 28.1216 163.849 28.6587C164.72 29.1958 165.391 29.9526 165.863 30.9292C166.335 31.8976 166.571 33.0288 166.571 34.3228V35.2261H156.098V33.3462H165.289L163.983 35.0918V34.0664C163.983 33.1631 163.845 32.4103 163.568 31.8081C163.292 31.2059 162.909 30.7583 162.421 30.4653C161.941 30.1642 161.383 30.0137 160.748 30.0137C160.114 30.0137 159.544 30.1683 159.039 30.4775C158.543 30.7868 158.152 31.2466 157.868 31.8569C157.583 32.4591 157.44 33.1956 157.44 34.0664V35.104C157.44 35.9422 157.579 36.6584 157.855 37.2524C158.14 37.8465 158.543 38.3022 159.064 38.6196C159.593 38.9289 160.215 39.0835 160.931 39.0835C161.452 39.0835 161.912 39.0062 162.311 38.8516C162.718 38.6888 163.051 38.4772 163.312 38.2168C163.58 37.9482 163.768 37.6593 163.873 37.3501L163.898 37.2646L166.425 37.2524L166.4 37.3867C166.294 37.8831 166.095 38.3633 165.802 38.8271C165.517 39.2829 165.139 39.6979 164.667 40.0723C164.195 40.4385 163.641 40.7274 163.007 40.939C162.372 41.1506 161.66 41.2563 160.87 41.2563ZM171.246 41L167.706 28.1094H170.368L172.699 38.229H172.785L175.458 28.1094H177.997L180.695 38.229H180.768L183.112 28.1094H185.736L182.196 41H179.437L176.752 31.3442H176.666L173.993 41H171.246ZM198.334 41.2563C197.097 41.2563 196.019 40.9878 195.099 40.4507C194.188 39.9054 193.475 39.1323 192.963 38.1313C192.458 37.1222 192.206 35.93 192.206 34.5547V34.5303C192.206 33.1549 192.458 31.9668 192.963 30.9658C193.475 29.9648 194.192 29.1958 195.111 28.6587C196.031 28.1216 197.105 27.853 198.334 27.853C199.563 27.853 200.637 28.1216 201.556 28.6587C202.476 29.1958 203.188 29.9648 203.693 30.9658C204.205 31.9587 204.462 33.1468 204.462 34.5303V34.5547C204.462 35.9382 204.205 37.1304 203.693 38.1313C203.188 39.1323 202.476 39.9054 201.556 40.4507C200.645 40.9878 199.571 41.2563 198.334 41.2563ZM198.346 39.0347C199.046 39.0347 199.648 38.8597 200.153 38.5098C200.657 38.1598 201.048 37.6512 201.325 36.9839C201.609 36.3084 201.752 35.4987 201.752 34.5547V34.5303C201.752 33.5863 201.609 32.7806 201.325 32.1133C201.048 31.446 200.653 30.9373 200.14 30.5874C199.628 30.2375 199.026 30.0625 198.334 30.0625C197.642 30.0625 197.04 30.2415 196.527 30.5996C196.014 30.9495 195.616 31.4582 195.331 32.1255C195.054 32.7847 194.916 33.5863 194.916 34.5303V34.5547C194.916 35.4987 195.054 36.3084 195.331 36.9839C195.616 37.6512 196.014 38.1598 196.527 38.5098C197.04 38.8597 197.646 39.0347 198.346 39.0347ZM206.635 41V28.1094H209.284V30.0503H209.369C209.703 29.3911 210.195 28.8621 210.846 28.4634C211.505 28.0565 212.319 27.853 213.287 27.853C214.712 27.853 215.81 28.2803 216.583 29.1348C217.365 29.9811 217.755 31.153 217.755 32.6504V41H215.094V33.1753C215.094 32.1906 214.866 31.4378 214.41 30.917C213.963 30.388 213.275 30.1235 212.348 30.1235C211.729 30.1235 211.188 30.2619 210.724 30.5386C210.268 30.8153 209.914 31.2059 209.662 31.7104C209.41 32.2069 209.284 32.7928 209.284 33.4683V41H206.635Z" fill="white"/>
</svg>
