<svg width="467" height="115" viewBox="0 0 467 115" fill="none" xmlns="http://www.w3.org/2000/svg">
<rect width="467" height="115" rx="30" fill="#1E69E7"/>
<path d="M140.405 87L131.288 53.1797H136.772L143.053 79.6641H143.171L150.296 53.1797H155.288L162.413 79.6641H162.53L168.811 53.1797H174.296L165.178 87H160.116L152.85 61.5234H152.733L145.467 87H140.405ZM185.803 87.4922C183.444 87.4922 181.381 86.9766 179.616 85.9453C177.866 84.8984 176.506 83.4219 175.538 81.5156C174.569 79.5938 174.085 77.3125 174.085 74.6719V74.625C174.085 72 174.569 69.7344 175.538 67.8281C176.522 65.9219 177.889 64.4531 179.639 63.4219C181.405 62.3906 183.452 61.875 185.78 61.875C188.124 61.875 190.171 62.3906 191.921 63.4219C193.686 64.4375 195.053 65.8984 196.022 67.8047C197.006 69.7109 197.499 71.9844 197.499 74.625V74.6719C197.499 77.3281 197.006 79.6094 196.022 81.5156C195.053 83.4219 193.694 84.8984 191.944 85.9453C190.194 86.9766 188.147 87.4922 185.803 87.4922ZM185.827 83.2266C187.139 83.2266 188.28 82.8906 189.249 82.2188C190.217 81.5469 190.967 80.5781 191.499 79.3125C192.03 78.0312 192.296 76.4844 192.296 74.6719V74.625C192.296 72.8281 192.03 71.2969 191.499 70.0312C190.967 68.75 190.21 67.7812 189.225 67.125C188.241 66.4531 187.092 66.1172 185.78 66.1172C184.483 66.1172 183.342 66.4531 182.358 67.125C181.389 67.7969 180.631 68.7656 180.085 70.0312C179.538 71.2969 179.264 72.8281 179.264 74.625V74.6719C179.264 76.4844 179.53 78.0312 180.061 79.3125C180.608 80.5781 181.374 81.5469 182.358 82.2188C183.342 82.8906 184.499 83.2266 185.827 83.2266ZM201.413 87V62.3438H206.522V66.5625H206.616C207.006 65.1094 207.702 63.9688 208.702 63.1406C209.702 62.2969 210.905 61.875 212.311 61.875C212.686 61.875 213.022 61.8984 213.319 61.9453C213.631 61.9766 213.881 62.0156 214.069 62.0625V66.7734C213.866 66.6953 213.561 66.6328 213.155 66.5859C212.749 66.5234 212.296 66.4922 211.796 66.4922C210.717 66.4922 209.78 66.7266 208.983 67.1953C208.186 67.6484 207.577 68.3125 207.155 69.1875C206.733 70.0469 206.522 71.0859 206.522 72.3047V87H201.413ZM225.413 87.4922C223.319 87.4922 221.499 86.9688 219.952 85.9219C218.405 84.875 217.21 83.3984 216.366 81.4922C215.522 79.5703 215.1 77.2969 215.1 74.6719V74.6484C215.1 72.0234 215.522 69.7578 216.366 67.8516C217.225 65.9453 218.421 64.4766 219.952 63.4453C221.499 62.3984 223.303 61.875 225.366 61.875C226.522 61.875 227.6 62.0625 228.6 62.4375C229.6 62.8125 230.483 63.3516 231.249 64.0547C232.03 64.7422 232.663 65.5703 233.147 66.5391H233.241V53.1797H238.35V87H233.241V82.8281H233.147C232.663 83.7969 232.038 84.625 231.272 85.3125C230.522 86 229.655 86.5391 228.671 86.9297C227.686 87.3047 226.6 87.4922 225.413 87.4922ZM226.749 83.1094C228.03 83.1094 229.155 82.7656 230.124 82.0781C231.108 81.375 231.874 80.3906 232.421 79.125C232.983 77.8594 233.264 76.375 233.264 74.6719V74.6484C233.264 72.9453 232.983 71.4688 232.421 70.2188C231.858 68.9531 231.092 67.9766 230.124 67.2891C229.155 66.5859 228.03 66.2344 226.749 66.2344C225.421 66.2344 224.272 66.5781 223.303 67.2656C222.335 67.9375 221.585 68.9062 221.053 70.1719C220.538 71.4219 220.28 72.9141 220.28 74.6484V74.6719C220.28 76.4062 220.538 77.9141 221.053 79.1953C221.585 80.4609 222.335 81.4297 223.303 82.1016C224.272 82.7734 225.421 83.1094 226.749 83.1094ZM246.764 75.4453V71.0391H255.436C257.702 71.0391 259.46 70.4531 260.71 69.2812C261.975 68.0938 262.608 66.4531 262.608 64.3594V64.3125C262.608 62.1875 261.975 60.5391 260.71 59.3672C259.46 58.1953 257.702 57.6094 255.436 57.6094H246.764V53.1797H256.749C258.967 53.1797 260.913 53.6484 262.585 54.5859C264.272 55.5078 265.592 56.8047 266.546 58.4766C267.499 60.1328 267.975 62.0625 267.975 64.2656V64.3125C267.975 66.5156 267.499 68.4609 266.546 70.1484C265.592 71.8203 264.272 73.125 262.585 74.0625C260.913 74.9844 258.967 75.4453 256.749 75.4453H246.764ZM244.139 87V53.1797H249.389V87H244.139ZM271.96 87V62.3438H277.069V66.5625H277.163C277.553 65.1094 278.249 63.9688 279.249 63.1406C280.249 62.2969 281.452 61.875 282.858 61.875C283.233 61.875 283.569 61.8984 283.866 61.9453C284.178 61.9766 284.428 62.0156 284.616 62.0625V66.7734C284.413 66.6953 284.108 66.6328 283.702 66.5859C283.296 66.5234 282.842 66.4922 282.342 66.4922C281.264 66.4922 280.327 66.7266 279.53 67.1953C278.733 67.6484 278.124 68.3125 277.702 69.1875C277.28 70.0469 277.069 71.0859 277.069 72.3047V87H271.96ZM297.272 87.4922C294.866 87.4922 292.788 86.9766 291.038 85.9453C289.303 84.8984 287.967 83.4219 287.03 81.5156C286.108 79.5938 285.647 77.3359 285.647 74.7422V74.7188C285.647 72.1562 286.116 69.9141 287.053 67.9922C287.991 66.0547 289.311 64.5547 291.014 63.4922C292.717 62.4141 294.717 61.875 297.014 61.875C299.327 61.875 301.311 62.3906 302.967 63.4219C304.639 64.4375 305.928 65.8828 306.835 67.7578C307.741 69.6172 308.194 71.7812 308.194 74.25V75.9609H288.155V72.375H305.733L303.225 75.7266V73.7578C303.225 72.0234 302.96 70.5859 302.428 69.4453C301.913 68.2891 301.186 67.4297 300.249 66.8672C299.327 66.3047 298.256 66.0234 297.038 66.0234C295.835 66.0234 294.756 66.3203 293.803 66.9141C292.85 67.5078 292.1 68.3828 291.553 69.5391C291.006 70.6797 290.733 72.0859 290.733 73.7578V75.7266C290.733 77.3203 290.999 78.6875 291.53 79.8281C292.077 80.9531 292.85 81.8203 293.85 82.4297C294.85 83.0234 296.03 83.3203 297.389 83.3203C298.389 83.3203 299.272 83.1719 300.038 82.875C300.803 82.5625 301.436 82.1562 301.936 81.6562C302.452 81.1406 302.811 80.5703 303.014 79.9453L303.085 79.7578H307.913L307.866 80.0156C307.663 80.9844 307.28 81.9141 306.717 82.8047C306.155 83.6953 305.421 84.5 304.514 85.2188C303.624 85.9219 302.569 86.4766 301.35 86.8828C300.131 87.2891 298.772 87.4922 297.272 87.4922ZM321.366 87.4922C319.303 87.4922 317.53 87.1797 316.046 86.5547C314.577 85.9141 313.421 85.0312 312.577 83.9062C311.733 82.7656 311.225 81.4453 311.053 79.9453L311.03 79.7344H316.046L316.092 79.9688C316.342 81.0938 316.897 81.9766 317.756 82.6172C318.616 83.2422 319.819 83.5547 321.366 83.5547C322.397 83.5547 323.272 83.4297 323.991 83.1797C324.71 82.9141 325.264 82.5391 325.655 82.0547C326.046 81.5703 326.241 80.9922 326.241 80.3203V80.2969C326.241 79.5 325.983 78.8594 325.467 78.375C324.952 77.8906 324.03 77.4844 322.702 77.1562L318.671 76.2422C317.108 75.8828 315.803 75.3906 314.756 74.7656C313.725 74.1406 312.952 73.375 312.436 72.4688C311.921 71.5625 311.663 70.5156 311.663 69.3281V69.3047C311.663 67.8203 312.061 66.5234 312.858 65.4141C313.655 64.2891 314.772 63.4219 316.21 62.8125C317.647 62.1875 319.311 61.875 321.202 61.875C323.139 61.875 324.811 62.2031 326.217 62.8594C327.624 63.5156 328.717 64.4141 329.499 65.5547C330.296 66.6797 330.733 67.9375 330.811 69.3281V69.6094H326.053L326.03 69.4453C325.889 68.3672 325.405 67.4922 324.577 66.8203C323.749 66.1328 322.624 65.7891 321.202 65.7891C320.296 65.7891 319.506 65.9219 318.835 66.1875C318.163 66.4531 317.647 66.8359 317.288 67.3359C316.928 67.8203 316.749 68.3906 316.749 69.0469V69.0703C316.749 69.5703 316.866 70.0234 317.1 70.4297C317.35 70.8359 317.749 71.1875 318.296 71.4844C318.842 71.7812 319.546 72.0312 320.405 72.2344L324.436 73.1719C326.952 73.75 328.733 74.5703 329.78 75.6328C330.842 76.6797 331.374 78.0938 331.374 79.875V79.8984C331.374 81.3984 330.944 82.7188 330.085 83.8594C329.225 85 328.038 85.8906 326.522 86.5312C325.022 87.1719 323.303 87.4922 321.366 87.4922ZM344.569 87.4922C342.506 87.4922 340.733 87.1797 339.249 86.5547C337.78 85.9141 336.624 85.0312 335.78 83.9062C334.936 82.7656 334.428 81.4453 334.256 79.9453L334.233 79.7344H339.249L339.296 79.9688C339.546 81.0938 340.1 81.9766 340.96 82.6172C341.819 83.2422 343.022 83.5547 344.569 83.5547C345.6 83.5547 346.475 83.4297 347.194 83.1797C347.913 82.9141 348.467 82.5391 348.858 82.0547C349.249 81.5703 349.444 80.9922 349.444 80.3203V80.2969C349.444 79.5 349.186 78.8594 348.671 78.375C348.155 77.8906 347.233 77.4844 345.905 77.1562L341.874 76.2422C340.311 75.8828 339.006 75.3906 337.96 74.7656C336.928 74.1406 336.155 73.375 335.639 72.4688C335.124 71.5625 334.866 70.5156 334.866 69.3281V69.3047C334.866 67.8203 335.264 66.5234 336.061 65.4141C336.858 64.2891 337.975 63.4219 339.413 62.8125C340.85 62.1875 342.514 61.875 344.405 61.875C346.342 61.875 348.014 62.2031 349.421 62.8594C350.827 63.5156 351.921 64.4141 352.702 65.5547C353.499 66.6797 353.936 67.9375 354.014 69.3281V69.6094H349.256L349.233 69.4453C349.092 68.3672 348.608 67.4922 347.78 66.8203C346.952 66.1328 345.827 65.7891 344.405 65.7891C343.499 65.7891 342.71 65.9219 342.038 66.1875C341.366 66.4531 340.85 66.8359 340.491 67.3359C340.131 67.8203 339.952 68.3906 339.952 69.0469V69.0703C339.952 69.5703 340.069 70.0234 340.303 70.4297C340.553 70.8359 340.952 71.1875 341.499 71.4844C342.046 71.7812 342.749 72.0312 343.608 72.2344L347.639 73.1719C350.155 73.75 351.936 74.5703 352.983 75.6328C354.046 76.6797 354.577 78.0938 354.577 79.875V79.8984C354.577 81.3984 354.147 82.7188 353.288 83.8594C352.428 85 351.241 85.8906 349.725 86.5312C348.225 87.1719 346.506 87.4922 344.569 87.4922ZM361.397 87.3516C360.522 87.3516 359.788 87.0547 359.194 86.4609C358.6 85.8672 358.303 85.1328 358.303 84.2578C358.303 83.3984 358.6 82.6719 359.194 82.0781C359.788 81.4844 360.522 81.1875 361.397 81.1875C362.256 81.1875 362.983 81.4844 363.577 82.0781C364.171 82.6719 364.467 83.3984 364.467 84.2578C364.467 85.1328 364.171 85.8672 363.577 86.4609C362.983 87.0547 362.256 87.3516 361.397 87.3516ZM378.647 87.4922C376.288 87.4922 374.225 86.9766 372.46 85.9453C370.71 84.8984 369.35 83.4219 368.381 81.5156C367.413 79.5938 366.928 77.3125 366.928 74.6719V74.625C366.928 72 367.413 69.7344 368.381 67.8281C369.366 65.9219 370.733 64.4531 372.483 63.4219C374.249 62.3906 376.296 61.875 378.624 61.875C380.967 61.875 383.014 62.3906 384.764 63.4219C386.53 64.4375 387.897 65.8984 388.866 67.8047C389.85 69.7109 390.342 71.9844 390.342 74.625V74.6719C390.342 77.3281 389.85 79.6094 388.866 81.5156C387.897 83.4219 386.538 84.8984 384.788 85.9453C383.038 86.9766 380.991 87.4922 378.647 87.4922ZM378.671 83.2266C379.983 83.2266 381.124 82.8906 382.092 82.2188C383.061 81.5469 383.811 80.5781 384.342 79.3125C384.874 78.0312 385.139 76.4844 385.139 74.6719V74.625C385.139 72.8281 384.874 71.2969 384.342 70.0312C383.811 68.75 383.053 67.7812 382.069 67.125C381.085 66.4531 379.936 66.1172 378.624 66.1172C377.327 66.1172 376.186 66.4531 375.202 67.125C374.233 67.7969 373.475 68.7656 372.928 70.0312C372.381 71.2969 372.108 72.8281 372.108 74.625V74.6719C372.108 76.4844 372.374 78.0312 372.905 79.3125C373.452 80.5781 374.217 81.5469 375.202 82.2188C376.186 82.8906 377.342 83.2266 378.671 83.2266ZM394.256 87V62.3438H399.366V66.5625H399.46C399.85 65.1094 400.546 63.9688 401.546 63.1406C402.546 62.2969 403.749 61.875 405.155 61.875C405.53 61.875 405.866 61.8984 406.163 61.9453C406.475 61.9766 406.725 62.0156 406.913 62.0625V66.7734C406.71 66.6953 406.405 66.6328 405.999 66.5859C405.592 66.5234 405.139 66.4922 404.639 66.4922C403.561 66.4922 402.624 66.7266 401.827 67.1953C401.03 67.6484 400.421 68.3125 399.999 69.1875C399.577 70.0469 399.366 71.0859 399.366 72.3047V87H394.256ZM419.874 95.6953C417.764 95.6953 415.921 95.3984 414.342 94.8047C412.78 94.2109 411.522 93.4062 410.569 92.3906C409.616 91.375 409.014 90.2422 408.764 88.9922L408.717 88.7812H413.78L413.85 88.9688C414.194 89.75 414.881 90.3828 415.913 90.8672C416.96 91.3672 418.272 91.6172 419.85 91.6172C421.85 91.6172 423.389 91.1094 424.467 90.0938C425.546 89.0938 426.085 87.7422 426.085 86.0391V82.6406H425.967C425.499 83.5312 424.881 84.3047 424.116 84.9609C423.366 85.6172 422.491 86.125 421.491 86.4844C420.491 86.8438 419.397 87.0234 418.21 87.0234C416.147 87.0234 414.342 86.5156 412.796 85.5C411.249 84.4688 410.053 83.0156 409.21 81.1406C408.366 79.2656 407.944 77.0469 407.944 74.4844V74.4609C407.944 71.8828 408.374 69.6562 409.233 67.7812C410.092 65.8906 411.296 64.4375 412.842 63.4219C414.405 62.3906 416.225 61.875 418.303 61.875C419.475 61.875 420.546 62.0703 421.514 62.4609C422.499 62.8516 423.366 63.3984 424.116 64.1016C424.866 64.7891 425.483 65.6016 425.967 66.5391H426.085V62.3438H431.171V86.3203C431.171 88.1953 430.71 89.8359 429.788 91.2422C428.881 92.6484 427.577 93.7422 425.874 94.5234C424.186 95.3047 422.186 95.6953 419.874 95.6953ZM419.639 82.8984C420.936 82.8984 422.061 82.5547 423.014 81.8672C423.983 81.1797 424.733 80.2109 425.264 78.9609C425.811 77.7109 426.085 76.2422 426.085 74.5547V74.5312C426.085 72.8438 425.811 71.3828 425.264 70.1484C424.733 68.8984 423.983 67.9375 423.014 67.2656C422.046 66.5781 420.921 66.2344 419.639 66.2344C418.311 66.2344 417.155 66.5703 416.171 67.2422C415.202 67.9141 414.452 68.875 413.921 70.125C413.389 71.3594 413.124 72.8203 413.124 74.5078V74.5312C413.124 76.2656 413.389 77.7578 413.921 79.0078C414.452 80.2422 415.202 81.2031 416.171 81.8906C417.155 82.5625 418.311 82.8984 419.639 82.8984Z" fill="white"/>
<path d="M131.953 41V23.3853H134.7V41H131.953ZM137.788 41V28.1094H140.437V30.0503H140.523C140.856 29.3911 141.349 28.8621 142 28.4634C142.659 28.0565 143.473 27.853 144.441 27.853C145.865 27.853 146.964 28.2803 147.737 29.1348C148.518 29.9811 148.909 31.153 148.909 32.6504V41H146.248V33.1753C146.248 32.1906 146.02 31.4378 145.564 30.917C145.116 30.388 144.429 30.1235 143.501 30.1235C142.883 30.1235 142.341 30.2619 141.878 30.5386C141.422 30.8153 141.068 31.2059 140.816 31.7104C140.563 32.2069 140.437 32.7928 140.437 33.4683V41H137.788ZM156.428 41.2563C155.362 41.2563 154.443 41.0936 153.67 40.7681C152.896 40.4425 152.286 39.9868 151.839 39.4009C151.399 38.8149 151.135 38.1313 151.045 37.3501L151.033 37.2524H153.67L153.682 37.3623C153.812 37.9401 154.105 38.3918 154.561 38.7173C155.016 39.0428 155.647 39.2056 156.453 39.2056C156.982 39.2056 157.437 39.1364 157.82 38.998C158.202 38.8597 158.495 38.6644 158.699 38.4121C158.902 38.1517 159.004 37.8506 159.004 37.5088V37.4844C159.004 37.0693 158.866 36.7357 158.589 36.4834C158.312 36.223 157.824 36.0073 157.124 35.8364L155.025 35.3604C154.211 35.1732 153.531 34.9168 152.986 34.5913C152.449 34.2658 152.046 33.867 151.777 33.395C151.509 32.923 151.375 32.3737 151.375 31.7471V31.7349C151.375 30.9618 151.582 30.2863 151.997 29.7085C152.42 29.1226 153.006 28.6668 153.755 28.3413C154.512 28.0158 155.383 27.853 156.367 27.853C157.376 27.853 158.247 28.0239 158.98 28.3657C159.72 28.7075 160.294 29.1714 160.701 29.7573C161.116 30.3351 161.348 30.9862 161.397 31.7104L161.409 31.8447H158.906L158.894 31.7593C158.821 31.2059 158.565 30.7583 158.125 30.4165C157.694 30.0666 157.108 29.8916 156.367 29.8916C155.887 29.8916 155.472 29.9648 155.122 30.1113C154.772 30.2497 154.5 30.4491 154.304 30.7095C154.117 30.9618 154.024 31.2588 154.024 31.6006V31.6128C154.024 31.8732 154.089 32.1092 154.219 32.3208C154.349 32.5324 154.557 32.7196 154.841 32.8823C155.126 33.0369 155.497 33.1672 155.952 33.2729L158.052 33.7612C159.362 34.0623 160.294 34.4896 160.847 35.043C161.409 35.5964 161.69 36.3369 161.69 37.2646V37.2769C161.69 38.0662 161.462 38.762 161.006 39.3643C160.558 39.9583 159.936 40.4222 159.138 40.7559C158.349 41.0895 157.446 41.2563 156.428 41.2563ZM168.452 41.2319C167.158 41.2319 166.198 40.9471 165.571 40.3774C164.945 39.7996 164.631 38.8719 164.631 37.5942V30.1968H162.764V28.1094H164.631V24.7646H167.341V28.1094H169.807V30.1968H167.341V37.3745C167.341 38.0337 167.484 38.4894 167.769 38.7417C168.054 38.994 168.485 39.1201 169.063 39.1201C169.209 39.1201 169.343 39.116 169.465 39.1079C169.588 39.0916 169.701 39.0794 169.807 39.0713V41.1221C169.644 41.1465 169.445 41.1709 169.209 41.1953C168.973 41.2197 168.721 41.2319 168.452 41.2319ZM175.679 41.2319C174.832 41.2319 174.084 41.0692 173.433 40.7437C172.79 40.4181 172.285 39.9624 171.919 39.3765C171.561 38.7905 171.382 38.111 171.382 37.3379V37.3135C171.382 36.5648 171.569 35.9178 171.943 35.3726C172.318 34.8192 172.863 34.3879 173.579 34.0786C174.295 33.7612 175.162 33.57 176.179 33.5049L181.038 33.2241V35.0796L176.533 35.3604C175.728 35.4092 175.109 35.6004 174.678 35.9341C174.255 36.2596 174.043 36.6991 174.043 37.2524V37.2646C174.043 37.8343 174.259 38.286 174.69 38.6196C175.121 38.9451 175.691 39.1079 176.399 39.1079C177.026 39.1079 177.583 38.9818 178.071 38.7295C178.568 38.4691 178.958 38.1191 179.243 37.6797C179.536 37.2321 179.683 36.7316 179.683 36.1782V32.3086C179.683 31.6006 179.459 31.0472 179.011 30.6484C178.572 30.2415 177.937 30.0381 177.107 30.0381C176.358 30.0381 175.752 30.1968 175.288 30.5142C174.824 30.8315 174.535 31.2466 174.422 31.7593L174.397 31.8569H171.895L171.907 31.7227C171.98 30.9821 172.232 30.3229 172.664 29.7451C173.103 29.1592 173.705 28.6994 174.47 28.3657C175.235 28.0239 176.143 27.853 177.193 27.853C178.25 27.853 179.162 28.028 179.927 28.3779C180.692 28.7279 181.282 29.2243 181.697 29.8672C182.12 30.502 182.332 31.2547 182.332 32.1255V41H179.683V38.998H179.609C179.357 39.4538 179.032 39.8485 178.633 40.1821C178.242 40.5158 177.795 40.7762 177.29 40.9634C176.794 41.1424 176.257 41.2319 175.679 41.2319ZM185.164 41V23.2754H187.813V41H185.164ZM190.803 41V23.2754H193.452V41H190.803ZM202.437 41V30.1968H200.606V28.1094H202.437V26.73C202.437 25.8918 202.571 25.2 202.839 24.6548C203.116 24.1095 203.535 23.7026 204.097 23.4341C204.658 23.1655 205.379 23.0312 206.257 23.0312C206.534 23.0312 206.807 23.0435 207.075 23.0679C207.344 23.0841 207.572 23.1086 207.759 23.1411V25.0942C207.629 25.078 207.482 25.0658 207.319 25.0576C207.157 25.0495 206.99 25.0454 206.819 25.0454C206.217 25.0454 205.769 25.1919 205.476 25.4849C205.183 25.7778 205.037 26.2132 205.037 26.791V28.1094H207.698V30.1968H205.086V41H202.437ZM209.907 41V28.1094H212.556V30.27H212.642C212.845 29.5213 213.211 28.9313 213.74 28.5C214.277 28.0687 214.92 27.853 215.669 27.853C215.864 27.853 216.043 27.8652 216.206 27.8896C216.377 27.9141 216.515 27.9385 216.621 27.9629V30.4165C216.499 30.3758 216.328 30.3433 216.109 30.3188C215.897 30.2863 215.661 30.27 215.401 30.27C214.823 30.27 214.318 30.3921 213.887 30.6362C213.464 30.8722 213.134 31.2181 212.898 31.6738C212.67 32.1296 212.556 32.6748 212.556 33.3096V41H209.907ZM223.408 41.2563C222.171 41.2563 221.093 40.9878 220.173 40.4507C219.262 39.9054 218.55 39.1323 218.037 38.1313C217.533 37.1222 217.28 35.93 217.28 34.5547V34.5303C217.28 33.1549 217.533 31.9668 218.037 30.9658C218.55 29.9648 219.266 29.1958 220.186 28.6587C221.105 28.1216 222.179 27.853 223.408 27.853C224.637 27.853 225.711 28.1216 226.631 28.6587C227.551 29.1958 228.263 29.9648 228.767 30.9658C229.28 31.9587 229.536 33.1468 229.536 34.5303V34.5547C229.536 35.9382 229.28 37.1304 228.767 38.1313C228.263 39.1323 227.551 39.9054 226.631 40.4507C225.72 40.9878 224.645 41.2563 223.408 41.2563ZM223.421 39.0347C224.12 39.0347 224.723 38.8597 225.227 38.5098C225.732 38.1598 226.122 37.6512 226.399 36.9839C226.684 36.3084 226.826 35.4987 226.826 34.5547V34.5303C226.826 33.5863 226.684 32.7806 226.399 32.1133C226.122 31.446 225.728 30.9373 225.215 30.5874C224.702 30.2375 224.1 30.0625 223.408 30.0625C222.717 30.0625 222.114 30.2415 221.602 30.5996C221.089 30.9495 220.69 31.4582 220.405 32.1255C220.129 32.7847 219.99 33.5863 219.99 34.5303V34.5547C219.99 35.4987 220.129 36.3084 220.405 36.9839C220.69 37.6512 221.089 38.1598 221.602 38.5098C222.114 38.8597 222.721 39.0347 223.421 39.0347ZM231.709 41V28.1094H234.358V30.0991H234.443C234.72 29.4155 235.172 28.8703 235.798 28.4634C236.425 28.0565 237.158 27.853 237.996 27.853C238.59 27.853 239.123 27.9548 239.595 28.1582C240.075 28.3535 240.482 28.6383 240.816 29.0127C241.157 29.3789 241.414 29.8306 241.585 30.3677H241.67C241.89 29.8468 242.195 29.3993 242.586 29.0249C242.984 28.6506 243.444 28.3617 243.965 28.1582C244.494 27.9548 245.064 27.853 245.674 27.853C246.528 27.853 247.269 28.0321 247.896 28.3901C248.522 28.7401 249.006 29.2324 249.348 29.8672C249.698 30.502 249.873 31.2547 249.873 32.1255V41H247.224V32.7603C247.224 32.1987 247.127 31.7227 246.931 31.332C246.744 30.9414 246.467 30.6444 246.101 30.4409C245.735 30.2293 245.287 30.1235 244.758 30.1235C244.229 30.1235 243.766 30.2456 243.367 30.4897C242.968 30.7257 242.655 31.0553 242.427 31.4785C242.207 31.9017 242.097 32.3818 242.097 32.9189V41H239.485V32.5649C239.485 32.0685 239.383 31.6372 239.18 31.271C238.984 30.9048 238.704 30.624 238.338 30.4287C237.979 30.2253 237.548 30.1235 237.044 30.1235C236.523 30.1235 236.059 30.2537 235.652 30.5142C235.253 30.7664 234.936 31.1123 234.7 31.5518C234.472 31.9831 234.358 32.4795 234.358 33.041V41H231.709Z" fill="white"/>
<path d="M58.0268 18.9879C36.7566 18.9879 19.5147 36.2297 19.5147 57.5C19.5147 78.7703 36.7566 96.0122 58.0268 96.0122C79.2971 96.0122 96.539 78.7703 96.539 57.5C96.539 36.2297 79.2971 18.9879 58.0268 18.9879ZM25.2915 57.5C25.2915 52.7553 26.3082 48.2494 28.126 44.1787L43.7427 86.9618C38.2109 84.2791 33.5464 80.0929 30.2832 74.8825C27.0201 69.672 25.2901 63.6479 25.2915 57.5ZM58.0268 90.2392C54.8149 90.2392 51.7108 89.7694 48.7801 88.9067L58.6045 60.3653L68.6677 87.9323C68.7321 88.0894 68.8107 88.2402 68.9027 88.3829C65.4086 89.6128 61.731 90.2404 58.0268 90.2392ZM62.5405 42.1529C64.5123 42.0489 66.2877 41.841 66.2877 41.841C68.0516 41.633 67.8436 39.0411 66.0797 39.1413C66.0797 39.1413 60.7766 39.5572 57.3529 39.5572C54.1371 39.5572 48.73 39.1413 48.73 39.1413C46.9623 39.0411 46.7582 41.737 48.522 41.841C48.522 41.841 50.1935 42.0489 51.9573 42.1529L57.0563 56.129L49.8931 77.6149L37.9697 42.1529C39.9415 42.0489 41.7169 41.841 41.7169 41.841C43.4808 41.633 43.269 39.0411 41.5051 39.1413C41.5051 39.1413 36.2058 39.5572 32.7821 39.5572C32.1659 39.5572 31.4457 39.5418 30.6755 39.5187C33.6529 34.9836 37.7118 31.2605 42.4865 28.6849C47.2612 26.1093 52.6017 24.7621 58.0268 24.7647C66.5496 24.7647 74.3098 28.0228 80.1328 33.3606C79.9903 33.3529 79.8555 33.3336 79.7092 33.3336C76.4934 33.3336 74.2135 36.1335 74.2135 39.1451C74.2135 41.8448 75.7694 44.1247 77.4293 46.8244C78.6732 49.0042 80.129 51.8041 80.129 55.8517C80.129 58.6515 79.0506 61.9058 77.6372 66.4348L74.3714 77.3453L62.5405 42.1529ZM74.4831 85.7949L84.4808 56.8877C86.3487 52.2161 86.9687 48.4843 86.9687 45.1607C86.9687 43.9553 86.8878 42.8384 86.7492 41.7948C89.3894 46.6079 90.7698 52.0103 90.7622 57.5C90.7643 63.2289 89.2617 68.8578 86.4048 73.8235C83.5478 78.7891 79.4368 82.9173 74.4831 85.7949Z" fill="white"/>
</svg>
